<svg xmlns="http://www.w3.org/2000/svg" width="75.665" height="72.304" viewBox="0 0 75.665 72.304">
  <path id="Path_1" data-name="Path 1" d="M537.586,202.1a22.755,22.755,0,0,1-6.566,15.868,12.3,12.3,0,0,0,4.455,5.081.9.9,0,0,1-.313,1.641,19.637,19.637,0,0,1-10.318-1.251,25.46,25.46,0,0,0-.86-6.488c4.925-3.6,8.129-8.911,8.129-14.852,0-10.787-10.474-19.62-23.372-19.62-9.38,0-17.509,4.69-21.183,11.412a36.131,36.131,0,0,0-6.566,1.251c3.361-10.474,14.461-18.213,27.671-18.213C524.61,176.928,537.586,188.184,537.586,202.1Zm-69.177,37.676a23.593,23.593,0,0,1-6.488-16.1c0-14.148,13.054-25.56,29.156-25.56s29.156,11.49,29.156,25.56c0,14.148-13.054,25.56-29.156,25.56a31.573,31.573,0,0,1-15.868-4.143,17.456,17.456,0,0,1-11.178,2.032.814.814,0,0,1-.313-1.485A10.683,10.683,0,0,0,468.409,239.774Zm19.073-26.733a3.283,3.283,0,1,0,3.283-3.283A3.253,3.253,0,0,0,487.481,213.041Zm-.86,23.137h8.911v-4.3h-1.641V218.747h-7.27v4.3h1.641v8.833h-1.641Z" transform="translate(-461.921 -176.928)" fill="#102048"/>
</svg>
