<?xml version="1.0" encoding="utf-8"?>
<!-- Generator: Adobe Illustrator 18.1.1, SVG Export Plug-In . SVG Version: 6.00 Build 0)  -->
<!DOCTYPE svg PUBLIC "-//W3C//DTD SVG 1.1//EN" "http://www.w3.org/Graphics/SVG/1.1/DTD/svg11.dtd">
<svg version="1.1" id="Layer_1" xmlns="http://www.w3.org/2000/svg" xmlns:xlink="http://www.w3.org/1999/xlink" x="0px" y="0px"
	 viewBox="233.1 429.1 512 326.1" enable-background="new 233.1 429.1 512 326.1" xml:space="preserve">
<g>
	<path fill="none" d="M659.4,580.2c12.6,0,25.1,2.3,33.1,8v-59.4c-8,2.3-14.9,3.4-22.9,3.4h-48v58.3
		C629.7,583.7,645.7,580.2,659.4,580.2z"/>
	<path fill="none" d="M661.7,722v-12.6c16-2.3,21.7-12.6,21.7-24c0-12.6-6.9-19.4-21.7-25.1c-12.6-4.6-17.1-9.1-17.1-16
		c0-5.7,3.4-12.6,14.9-12.6c9.1,0,14.9,3.4,17.1,4.6l3.4-9.1c-4.6-2.3-10.3-4.6-18.3-4.6V610h-8v12.6c-8,2.3-20.6,10.3-20.6,22.9
		c0,12.6,9.1,18.3,22.9,24c10.3,4.6,16,9.1,16,16c0,8-6.9,13.7-16,13.7c-8,0-14.9-2.3-19.4-5.7l-3.4,9.1c4.6,3.4,13.7,5.7,21.7,5.7
		v12.6h6.9v1.1H661.7z"/>
	<path fill="none" d="M572.5,666c0-25.1,10.3-46.9,26.3-62.9h-96v-70.9h-240c-8,0-13.7-1.1-21.7-3.4v170.3
		c0,11.4,10.3,22.9,21.7,22.9H592C579.4,706,572.5,686.5,572.5,666z M289.1,619.1H472v8H289.1V619.1z M518.8,674H289.1v-8h229.7V674
		z"/>
	<rect x="289.1" y="619.1" width="182.9" height="8"/>
	<rect x="289.1" y="666" width="229.7" height="8"/>
	<path d="M700.5,592.8v-80V442c0-16-17.1-12.6-30.9-12.6H262.8c-6.9,0-29.7-1.1-29.7,12.6v76.6v4.6v177.1c0,16,13.7,30.9,29.7,30.9
		H600c16,16,36.6,24,59.4,24c48,0,85.7-38.9,85.7-86.9C745.1,635.1,724.5,607.7,700.5,592.8z M669.7,531.1c8,0,14.9-1.1,22.9-3.4
		v59.4c-8-4.6-20.6-8-33.1-8c-14.9,0-29.7,3.4-37.7,10.3v-58.3H669.7z M632,703.7l3.4-9.1c4.6,3.4,11.4,5.7,19.4,5.7
		c10.3,0,16-5.7,16-13.7s-5.7-12.6-16-16c-13.7-5.7-22.9-12.6-22.9-24s12.6-20.6,20.6-22.9v-12.6h8v12.6c8,0,13.7,2.3,18.3,4.6
		l-3.4,9.1c-3.4-1.1-8-4.6-17.1-4.6c-10.3,0-14.9,6.9-14.9,12.6c0,6.9,5.7,10.3,17.1,16c13.7,5.7,21.7,12.6,21.7,25.1
		c0,11.4-5.7,21.7-21.7,24v12.6h-8v-12.6C645.7,709.4,636.5,707.1,632,703.7z M510.8,528.8v-52.6h102.9v52.6v66.3h-4.6h-98.3
		L510.8,528.8L510.8,528.8z M241.1,699.1V528.8c8,2.3,14.9,3.4,21.7,3.4h240v70.9h96c-16,16-26.3,38.9-26.3,62.9
		c0,20.6,6.9,40,19.4,56H262.8C251.4,722,241.1,711.7,241.1,699.1z"/>
</g>
</svg>
