<?xml version="1.0" encoding="utf-8"?>
<!-- Generator: Adobe Illustrator 18.1.1, SVG Export Plug-In . SVG Version: 6.00 Build 0)  -->
<!DOCTYPE svg PUBLIC "-//W3C//DTD SVG 1.1//EN" "http://www.w3.org/Graphics/SVG/1.1/DTD/svg11.dtd">
<svg version="1.1" id="Layer_1" xmlns="http://www.w3.org/2000/svg" xmlns:xlink="http://www.w3.org/1999/xlink" x="0px" y="0px"
	 viewBox="241.3 188.9 12.7 16.7" enable-background="new 241.3 188.9 12.7 16.7" xml:space="preserve">
<g>
	<path fill="#002B5A" d="M252.2,195.8H243c-0.9,0-1.7,0.5-1.7,1.3v8.5H254v-8.5C254,196.3,253.2,195.8,252.2,195.8z M248.6,200.7
		v1.4c0,0.5-0.5,0.8-0.8,0.8s-0.8-0.4-0.8-0.8v-1.4c0-0.2-0.7-0.7-0.7-1.2c0-0.8,0.7-1.4,1.6-1.4c0.8,0,1.5,0.6,1.5,1.4
		C249.3,200,248.6,200.5,248.6,200.7z"/>
	<path fill="#002B5A" d="M242.3,195h1.1c0,0,0-0.1,0-0.2c0-0.8-0.1-2.6,1-3.7c0.7-0.7,1.7-1,3-1c1.3,0,2.3,0.3,3,1
		c1.1,1.1,1.1,3,1.1,3.9v0.2h1.1v-0.1c0-0.9,0-3.1-1.4-4.6c-0.9-0.9-2.2-1.4-3.8-1.4c-1.6,0-2.9,0.5-3.8,1.4
		C242.1,191.8,242.2,193.9,242.3,195C242.3,194.9,242.3,195,242.3,195z"/>
</g>
</svg>
