<?xml version="1.0" encoding="utf-8"?>
<!-- Generator: Adobe Illustrator 18.1.1, SVG Export Plug-In . SVG Version: 6.00 Build 0)  -->
<!DOCTYPE svg PUBLIC "-//W3C//DTD SVG 1.1//EN" "http://www.w3.org/Graphics/SVG/1.1/DTD/svg11.dtd">
<svg version="1.1" id="Layer_1" xmlns="http://www.w3.org/2000/svg" xmlns:xlink="http://www.w3.org/1999/xlink" x="0px" y="0px"
	 viewBox="132.4 188.9 39.5 16.7" enable-background="new 132.4 188.9 39.5 16.7" xml:space="preserve">
<g>
	<g>
		<g>
			<path fill="#002B5A" d="M143.9,188.9c-4.4,0.9-9.5,2-9.5,7.2c0,1.1,0.4,2.3,0.8,2.9c2.8,4.7,12,5.2,19.1,4.4
				c7.4-0.9,13.7-3,17.4-6.8c-3.4,5.3-10.5,7.8-18.4,8.8c-8.2,1-18.2-0.3-20.6-6c-1.2-2.9-0.1-6.1,1.5-7.7
				C136.5,189.6,139.8,188.7,143.9,188.9z"/>
			<path fill="#002B5A" d="M159.7,188.9c1.1,0,2.2,0,3.3,0c0.9,3.4,1.9,6.6,2.9,9.9c-1,0-2,0-3,0c-0.2-0.7-0.3-1.4-0.5-2
				c-1.8,0-3.6,0-5.5,0c-0.5,0.6-0.9,1.4-1.4,2c-0.9,0-1.8,0-2.7,0C155,195.5,157.4,192.2,159.7,188.9z M160.7,190.9l-2.7,4.3l3.9,0
				L160.7,190.9z"/>
			<path fill="#002B5A" d="M154.5,188.9c0.9,0,1.8,0,2.6,0c-2.1,3.4-4.1,6.8-6,9.9c-1.1,0-2.2,0-3.3,0c-0.6-3.4-1.4-6.6-1.9-9.9
				c1,0,1.9,0,2.9,0c0.3,2.8,0.8,5.4,1.1,8.2C151.6,194.3,153,191.9,154.5,188.9z"/>
			<path fill="#002B5A" d="M145.6,196c-2,0-4,0-5.9,0c-0.9,2,2.6,2.3,3,0.8c0.9,0,1.7,0,2.6,0c-0.9,3-8.6,3.6-8.2-1
				c0.2-2.4,2.4-4.1,4.8-4.1C144.6,191.6,146.2,192.8,145.6,196z M139.9,194.7c1.1,0,2.2,0,3.3,0
				C143.7,192.3,139.8,192.9,139.9,194.7z"/>
		</g>
	</g>
</g>
</svg>
