<?xml version="1.0" encoding="utf-8"?>
<!-- Generator: Adobe Illustrator 18.1.1, SVG Export Plug-In . SVG Version: 6.00 Build 0)  -->
<!DOCTYPE svg PUBLIC "-//W3C//DTD SVG 1.1//EN" "http://www.w3.org/Graphics/SVG/1.1/DTD/svg11.dtd">
<svg version="1.1" id="Layer_1" xmlns="http://www.w3.org/2000/svg" xmlns:xlink="http://www.w3.org/1999/xlink" x="0px" y="0px"
	 viewBox="358 189 15.1 16.7" enable-background="new 358 189 15.1 16.7" xml:space="preserve">
<path fill="#002B5A" d="M371.4,189.5L371.4,189.5c-0.6-0.3-1.1-0.5-1.7-0.5c-1.1,0-2.1,0.6-2.7,1.5l-1.7,3.2
	c-0.4-0.1-0.7-0.2-1.1-0.2c-1.1,0-2.1,0.6-2.7,1.5l-3.2,6c-0.8,1.4-0.1,3.3,1.4,4.2l0.1,0c0.5,0.3,1.1,0.4,1.6,0.4l0,0
	c1.1,0,2.1-0.6,2.7-1.5l1.7-3.2c0.4,0.1,0.7,0.2,1.1,0.2l0,0c1.1,0,2.1-0.6,2.7-1.5l3.2-6C373.6,192.2,372.9,190.3,371.4,189.5z
	 M366,196.4c0.1,0.4,0.1,0.7,0,1l-0.6,1.1c0,0,0-0.1-0.1-0.2c-0.1-0.4-0.1-0.7,0-1l0.6-1.1C365.9,196.2,365.9,196.3,366,196.4z
	 M362.7,203.4c-0.2,0.4-0.7,0.7-1.2,0.7c-0.3,0-0.6-0.1-0.8-0.2l-0.1,0c-0.8-0.4-1.1-1.3-0.7-1.9l3.2-6c0.2-0.4,0.7-0.7,1.2-0.7
	c0.1,0,0.2,0,0.3,0l-0.7,1.4c-0.4,0.7-0.5,1.6-0.2,2.3c0.2,0.5,0.4,0.9,0.8,1.2L362.7,203.4z M371.4,192.9l-3.2,6
	c-0.2,0.4-0.7,0.7-1.2,0.7c-0.1,0-0.2,0-0.3,0l0.7-1.4c0.4-0.7,0.5-1.6,0.2-2.3c-0.2-0.5-0.4-0.9-0.8-1.2l1.8-3.3
	c0.2-0.4,0.7-0.7,1.2-0.7c0.3,0,0.6,0.1,0.8,0.2l0.1,0C371.4,191.3,371.7,192.2,371.4,192.9z"/>
</svg>
