<?xml version="1.0" encoding="utf-8"?>
<!-- Generator: Adobe Illustrator 18.1.1, SVG Export Plug-In . SVG Version: 6.00 Build 0)  -->
<!DOCTYPE svg PUBLIC "-//W3C//DTD SVG 1.1//EN" "http://www.w3.org/Graphics/SVG/1.1/DTD/svg11.dtd">
<svg version="1.1" id="Layer_1" xmlns="http://www.w3.org/2000/svg" xmlns:xlink="http://www.w3.org/1999/xlink" x="0px" y="0px"
	 viewBox="386.9 188.5 17.1 17.2" enable-background="new 386.9 188.5 17.1 17.2" xml:space="preserve">
<g>
	<g>
		<g>
			<path fill="#002B5A" d="M395.5,205.7c-4.7,0-8.6-3.9-8.6-8.6c0-4.8,3.9-8.6,8.6-8.6c4.7,0,8.6,3.9,8.6,8.6
				C404.1,201.9,400.2,205.7,395.5,205.7z M395.5,189.9c-4,0-7.2,3.2-7.2,7.2c0,4,3.2,7.2,7.2,7.2c4,0,7.2-3.2,7.2-7.2
				S399.5,189.9,395.5,189.9z"/>
		</g>
		<circle fill="#002B5A" cx="395.5" cy="197.1" r="1.4"/>
		<path fill="#002B5A" d="M399.8,197.1c0,0.4-1.1,0.7-2.5,0.7s-1.8-0.3-1.8-0.7c0-0.4,0.4-0.7,1.8-0.7
			C398.7,196.4,399.8,196.7,399.8,197.1z"/>
		<path fill="#002B5A" d="M396.2,194.6c0,1.8-0.3,2.5-0.7,2.5c-0.4,0-0.7-0.7-0.7-2.5s0.3-3.2,0.7-3.2
			C395.9,191.4,396.2,192.8,396.2,194.6z"/>
	</g>
</g>
</svg>
