<?xml version="1.0" encoding="utf-8"?>
<!-- Generator: Adobe Illustrator 18.1.1, SVG Export Plug-In . SVG Version: 6.00 Build 0)  -->
<!DOCTYPE svg PUBLIC "-//W3C//DTD SVG 1.1//EN" "http://www.w3.org/Graphics/SVG/1.1/DTD/svg11.dtd">
<svg version="1.1" id="Layer_1" xmlns="http://www.w3.org/2000/svg" xmlns:xlink="http://www.w3.org/1999/xlink" x="0px" y="0px"
	 viewBox="446.4 190.9 511.1 511.4" enable-background="new 446.4 190.9 511.1 511.4" xml:space="preserve">
<path fill="#002B5A" d="M951.9,463l-143.4-84.8c-2.9-2.9-5.9-5.9-5.9-8.8l8.8-166.8c0-11.7-11.7-14.6-20.5-8.8L668.2,305
	c-2.9,2.9-5.9,2.9-11.7,2.9l-149.2-61.4c-8.8-2.9-20.5,5.9-14.6,14.6l61.4,152.1c0,2.9,0,8.8,0,11.7L448.7,556.6
	c-5.9,8.8,0,20.5,11.7,20.5l166.8-20.5c2.9,0,8.8,0,11.7,5.9l93.6,134.6c5.9,8.8,20.5,5.9,20.5-2.9l29.3-146.3L753,530.3h-2.9
	l-46.8,29.3c-2.9,0-5.9,0-5.9-5.9l14.6-55.6v-2.9l-41-38c-2.9-2.9,0-5.9,2.9-5.9l52.7-2.9c0,0,2.9,0,2.9-2.9l20.5-49.7
	c0-2.9,5.9-2.9,5.9,0l20.5,52.7c0,0,0,2.9,2.9,2.9l55.6,5.9c2.9,0,5.9,5.9,2.9,5.9L794,498.1v2.9l5.9,26.3l152.1-38
	C957.8,483.5,960.7,471.8,951.9,463z"/>
</svg>
