<svg xmlns="http://www.w3.org/2000/svg" width="84.406" height="62.469"><g data-name="Group 4"><path data-name="Path 2" d="M73.025 51.797v-51.8H50.64c-3.714 0-6.753 2.742-6.753 6.094v48.05a10.674 10.674 0 0 1 6.753-2.346z"/><path data-name="Path 3" d="M82.717 4.578h-6.318v50.269h-25.76a7.087 7.087 0 0 0-4.486 1.557l-2.267 1.854-1.686 1.379-1.69-1.38-2.265-1.85a7.1 7.1 0 0 0-4.487-1.559H7.998V4.578H1.687A1.612 1.612 0 0 0-.001 6.101v54.846a1.612 1.612 0 0 0 1.688 1.523h81.03a1.612 1.612 0 0 0 1.688-1.523V6.101a1.612 1.612 0 0 0-1.688-1.523z"/><path data-name="Path 4" d="M40.512 54.144V6.094C40.512 2.743 37.49 0 33.759 0H11.375v51.8h22.384a10.639 10.639 0 0 1 6.753 2.344z"/><path data-name="Path 5" d="m31.149 26.641-8.664 6.524a1.481 1.481 0 0 1-.876.269 1.579 1.579 0 0 1-.469-.065.966.966 0 0 1-.765-.862V19.469a.966.966 0 0 1 .765-.862 1.554 1.554 0 0 1 1.345.2l8.664 6.524a.772.772 0 0 1 0 1.31z" fill="#fff"/><path data-name="Rectangle 16" fill="#fff" d="M50.282 10.336h16.433v.964H50.282z"/><path data-name="Rectangle 17" fill="#fff" d="M50.282 17.966h16.433v.964H50.282z"/><path data-name="Rectangle 18" fill="#fff" d="M50.282 25.595h16.433v.964H50.282z"/><path data-name="Rectangle 19" fill="#fff" d="M50.282 33.225h16.433v.964H50.282z"/><path data-name="Rectangle 20" fill="#fff" d="M50.282 40.854h16.433v.964H50.282z"/></g></svg>