<svg xmlns="http://www.w3.org/2000/svg" width="75.665" height="72.304"><path data-name="Path 1" d="M75.665 25.172a22.755 22.755 0 0 1-6.566 15.868 12.3 12.3 0 0 0 4.455 5.081.9.9 0 0 1-.313 1.641 19.637 19.637 0 0 1-10.318-1.251 25.46 25.46 0 0 0-.86-6.488c4.925-3.6 8.129-8.911 8.129-14.852 0-10.787-10.474-19.62-23.372-19.62-9.38 0-17.509 4.69-21.183 11.412a36.131 36.131 0 0 0-6.566 1.251C22.432 7.74 33.532.001 46.742.001 62.689 0 75.665 11.256 75.665 25.172zM6.488 62.848A23.593 23.593 0 0 1 0 46.748c0-14.148 13.054-25.56 29.156-25.56s29.156 11.49 29.156 25.56c0 14.148-13.054 25.56-29.156 25.56a31.573 31.573 0 0 1-15.868-4.143A17.456 17.456 0 0 1 2.11 70.197a.814.814 0 0 1-.313-1.485 10.683 10.683 0 0 0 4.691-5.866zm19.073-26.733a3.283 3.283 0 1 0 3.283-3.283 3.253 3.253 0 0 0-3.284 3.281zm-.86 23.137h8.911v-4.3h-1.641l-.001-13.133H24.7v4.3h1.641v8.833H24.7z" fill="#102048"/></svg>