<?xml version="1.0" encoding="utf-8"?>
<!-- Generator: Adobe Illustrator 18.1.1, SVG Export Plug-In . SVG Version: 6.00 Build 0)  -->
<!DOCTYPE svg PUBLIC "-//W3C//DTD SVG 1.1//EN" "http://www.w3.org/Graphics/SVG/1.1/DTD/svg11.dtd">
<svg version="1.1" id="Layer_1" xmlns="http://www.w3.org/2000/svg" xmlns:xlink="http://www.w3.org/1999/xlink" x="0px" y="0px"
	 viewBox="85.2 188.9 11.7 16.9" enable-background="new 85.2 188.9 11.7 16.9" xml:space="preserve">
<path fill="#002B5A" d="M96.4,204.1c0,0-1.9,0.7-4.1,0.7c-1.5,0-2.9-0.3-3.9-1c-1.9-1.1-2.3-4.3-2.3-6.6c0-2.3,0.4-5.4,2.3-6.6
	c1.1-0.7,2.4-1,3.9-1c2.2,0,4.1,0.7,4.1,0.7c0.2,0.1,0.5,0,0.5-0.2s0-0.5-0.2-0.5c-0.1,0-2-0.7-4.4-0.7c-1.7,0-3.2,0.4-4.3,1.1
	c-1.9,1.1-2.5,3.9-2.7,6.1h0v0.2c0,0.3,0,0.6,0,0.9c0,0,0,0,0,0c0,0,0,0,0,0c0,0.3,0,0.7,0,0.9v0.2h0c0.2,2.3,0.8,5,2.7,6.1
	c1.2,0.7,2.7,1.1,4.3,1.1c2.3,0,4.3-0.7,4.4-0.7c0.2-0.1,0.3-0.3,0.2-0.5C96.9,204.1,96.6,204,96.4,204.1z"/>
</svg>
