<svg id="Layer_2" data-name="Layer 2" xmlns="http://www.w3.org/2000/svg" viewBox="0 0 7.52 17.2"><defs><style>.cls-1{fill:#002b5a;}</style></defs><title>umwicon-eaglepay</title><path class="cls-1" d="M7.9,15.19a7.33,7.33,0,0,1-1.59-.32A5.35,5.35,0,0,1,5,14.35l.66-1.68a4.67,4.67,0,0,0,1.25.61,4.39,4.39,0,0,0,1.39.26A2.46,2.46,0,0,0,10,13a1.91,1.91,0,0,0,.65-1.48,2.53,2.53,0,0,0-.19-1A1.84,1.84,0,0,0,10,9.77,8.22,8.22,0,0,0,8.49,9l-1.08-.5A4.29,4.29,0,0,1,5.51,7,3.92,3.92,0,0,1,5,4.85a3.3,3.3,0,0,1,.8-2.2A3.54,3.54,0,0,1,7.9,1.46V0H9.16V1.39a4.35,4.35,0,0,1,2.65.71l-.54,1.59a4.19,4.19,0,0,0-1.11-.51,4.45,4.45,0,0,0-1.38-.25,2,2,0,0,0-1.46.53,1.83,1.83,0,0,0-.53,1.36A2.21,2.21,0,0,0,7,5.75a2,2,0,0,0,.55.71,7.68,7.68,0,0,0,1.38.78l.84.39a5,5,0,0,1,2.08,1.63,4.28,4.28,0,0,1,.66,2.46,3.07,3.07,0,0,1-.88,2.17,4.19,4.19,0,0,1-2.44,1.2v2.1H7.9Z" transform="translate(-4.96 0)"/></svg>