<?xml version="1.0" encoding="utf-8"?>
<!-- Generator: Adobe Illustrator 18.1.1, SVG Export Plug-In . SVG Version: 6.00 Build 0)  -->
<!DOCTYPE svg PUBLIC "-//W3C//DTD SVG 1.1//EN" "http://www.w3.org/Graphics/SVG/1.1/DTD/svg11.dtd">
<svg version="1.1" id="Layer_1" xmlns="http://www.w3.org/2000/svg" xmlns:xlink="http://www.w3.org/1999/xlink" x="0px" y="0px"
	 viewBox="212.9 188.8 17.1 16.6" enable-background="new 212.9 188.8 17.1 16.6" xml:space="preserve">
<g>
	<polygon fill="#002B5A" points="213.8,201.1 213.9,200.6 213.5,200.3 213.5,200.3 213.4,198.2 220.7,202.5 229.9,197 229.1,196.5 
		230,195.9 229.6,195.7 229.5,195.7 229.5,195.7 220.7,201.2 213.5,196.9 213.3,194.6 214.6,195.4 220.7,198.9 222.2,198 
		229.9,193.5 222,188.8 212.9,194.3 213.1,197 213.1,197.1 213.7,197.5 212.9,197.9 213.1,200.7 213.1,200.7 213.8,201.1 	"/>
	<polygon fill="#002B5A" points="220.7,204.7 216.4,202.1 216.2,202.6 220.7,205.4 230,199.5 229.6,199.2 	"/>
	<polygon fill="#002B5A" points="214.6,199.7 213.7,202.3 214.8,202.2 215.5,203.5 216.6,201 	"/>
</g>
</svg>
