<?xml version="1.0" encoding="utf-8"?>
<!-- Generator: Adobe Illustrator 21.0.2, SVG Export Plug-In . SVG Version: 6.00 Build 0)  -->
<svg version="1.1" id="Layer_1" xmlns="http://www.w3.org/2000/svg" xmlns:xlink="http://www.w3.org/1999/xlink" x="0px" y="0px"
	 viewBox="0 0 42.2 42.2" style="enable-background:new 0 0 42.2 42.2;" xml:space="preserve">
<path d="M21.1,42.2C9.5,42.2,0,32.8,0,21.1S9.5,0,21.1,0s21.1,9.5,21.1,21.1S32.7,42.2,21.1,42.2z M21.1,2C10.6,2,2,10.6,2,21.1
	s8.6,19.1,19.1,19.1s19.1-8.6,19.1-19.1S31.6,2,21.1,2z"/>
<rect x="11.4" y="30.5" width="19.3" height="2.7"/>
<polygon points="21.1,15.6 11.4,19.7 11.4,17 21.1,12.9 "/>
<polygon points="21.1,15.6 30.7,19.7 30.7,17 21.1,12.9 "/>
<g>
	<path d="M21.1,10.6c3.2,0,5.6,1.5,7,3.9l2.6,0.9c-1.2-4-4.8-6.8-9.6-6.8s-8.4,2.8-9.7,6.8l2.6-0.9C15.4,12.2,17.9,10.6,21.1,10.6z"
		/>
</g>
<rect x="11.5" y="21.1" width="2.7" height="7.5"/>
<rect x="28.1" y="21.1" width="2.7" height="7.5"/>
<rect x="22.6" y="21.2" width="2.7" height="7.5"/>
<rect x="17" y="21.2" width="2.7" height="7.5"/>
</svg>
