<?xml version="1.0" encoding="utf-8"?>
<!-- Generator: Adobe Illustrator 18.1.1, SVG Export Plug-In . SVG Version: 6.00 Build 0)  -->
<!DOCTYPE svg PUBLIC "-//W3C//DTD SVG 1.1//EN" "http://www.w3.org/Graphics/SVG/1.1/DTD/svg11.dtd">
<svg version="1.1" id="Layer_1" xmlns="http://www.w3.org/2000/svg" xmlns:xlink="http://www.w3.org/1999/xlink" x="0px" y="0px"
	 viewBox="95.1 281.5 519.6 323.1" enable-background="new 95.1 281.5 519.6 323.1" xml:space="preserve">
<g>
	<path fill="#002B5A" d="M614.7,355.2c0,7.6,0,17-3.8,26.5c-1.9,9.4-3.8,13.2-5.7,13.2s-1.9,0-1.9-1.9c0,0,0,0,0-1.9
		c3.8-11.3,5.7-20.8,5.7-34c0-18.9-5.7-34-17-45.3c-11.3-11.3-26.5-17-45.3-17c-24.6,0-51,9.4-77.5,24.6
		c20.8,15.1,32.1,34,32.1,54.8c0,34-22.7,52.9-68,60.5c37.8,13.2,56.7,37.8,56.7,71.8c0,26.5-11.3,49.1-34,68
		c-22.7,18.9-47.2,30.2-77.5,30.2c-13.2,0-26.5-3.8-34-11.3c-9.4-7.6-13.2-17-13.2-30.2c0-18.9,9.4-37.8,26.5-56.7
		s35.9-28.3,52.9-28.3c9.4,0,17,3.8,24.6,9.4c5.7,5.7,9.4,13.2,9.4,24.6c0,5.7-1.9,13.2-5.7,20.8c-3.8,9.4-5.7,13.2-9.4,13.2
		c-1.9,0-1.9,0-1.9-1.9c0,0,0-1.9,0-3.8c7.6-11.3,11.3-20.8,11.3-30.2s-3.8-15.1-9.4-20.8c-5.7-5.7-13.2-7.6-20.8-7.6
		c-17,0-34,9.4-51,26.5c-17,17-24.6,35.9-24.6,54.8c0,9.4,3.8,18.9,9.4,24.6c7.6,7.6,15.1,9.4,26.5,9.4c22.7,0,43.5-11.3,64.2-34
		c18.9-22.7,28.3-47.2,28.3-73.7c0-24.6-13.2-43.5-35.9-54.8l-13.2,1.9c-3.8,0-7.6,0-11.3,0c-11.3,0-17-1.9-17-5.7s3.8-3.8,13.2-3.8
		c7.6,0,15.1,1.9,26.5,3.8c15.1-3.8,28.3-13.2,37.8-26.5c9.4-13.2,13.2-26.5,13.2-41.6c0-15.1-5.7-28.3-17-41.6
		c-34,26.5-64.2,68-94.5,128.5c-17,37.8-34,64.2-49.1,81.2c-15.1,17-34,30.2-62.3,43.5c-32.1,15.1-60.5,22.7-85,22.7
		c-20.8,0-37.8-3.8-51-13.2c-13.2-9.4-20.8-20.8-20.8-34c0-7.6,1.9-15.1,7.6-20.8c3.8-5.7,9.4-9.4,17-9.4c9.4,0,13.2,5.7,13.2,15.1
		c0,5.7-1.9,9.4-3.8,13.2c-1.9,3.8-7.6,5.7-11.3,5.7c-7.6,0-11.3-3.8-11.3-13.2c0-3.8,0-3.8,0-3.8c-1.9,0-3.8,3.8-3.8,13.2
		c0,13.2,5.7,22.7,18.9,30.2c13.2,9.4,28.3,13.2,47.2,13.2c34,0,62.3-13.2,90.7-35.9c11.3-11.3,20.8-20.8,30.2-34
		c9.4-11.3,28.3-41.6,58.6-88.8c15.1-22.7,34-45.3,54.8-68c20.8-22.7,37.8-39.7,52.9-49.1c-24.6-20.8-58.6-30.2-103.9-30.2
		c-64.2,0-119,22.7-166.3,68c-37.8,37.8-58.6,73.7-58.6,107.7c0,17,5.7,30.2,17,39.7c11.3,9.4,26.5,15.1,43.5,15.1
		c30.2,0,62.3-15.1,94.5-43.5c32.1-30.2,49.1-56.7,49.1-85c0-20.8-11.3-32.1-34-32.1c-22.7,0-47.2,13.2-71.8,37.8
		s-37.8,49.1-37.8,69.9c0,5.7,1.9,9.4,5.7,13.2c3.8,3.8,7.6,5.7,13.2,5.7c1.9,0,3.8,0,3.8,1.9s-1.9,1.9-3.8,1.9
		c-7.6,0-13.2-3.8-18.9-9.4c-3.8-5.7-7.6-15.1-7.6-24.6c0-22.7,13.2-47.2,37.8-68c26.5-22.7,52.9-34,79.4-34
		c26.5,0,37.8,13.2,37.8,35.9c0,30.2-17,58.6-49.1,88.8c-34,30.2-66.1,45.3-98.2,45.3c-20.8,0-37.8-5.7-51-18.9
		c-13.2-13.2-18.9-30.2-18.9-51c0-43.5,24.6-81.2,71.8-117.1s102-52.9,160.6-52.9c43.5,0,81.2,9.4,111.5,30.2
		c28.3-17,54.8-26.5,81.2-26.5c20.8,0,35.9,5.7,49.1,17C609,319.3,614.7,336.3,614.7,355.2z"/>
</g>
</svg>
