<svg xmlns="http://www.w3.org/2000/svg" width="84.406" height="62.469" viewBox="0 0 84.406 62.469">
  <g id="Group_4" data-name="Group 4" transform="translate(-1467.983 -224.441)">
    <path id="Path_2" data-name="Path 2" d="M1770.247,276.238v-51.8h-22.385c-3.714,0-6.753,2.742-6.753,6.094v48.05a10.674,10.674,0,0,1,6.753-2.346Z" transform="translate(-229.239 0)"/>
    <path id="Path_3" data-name="Path 3" d="M1550.7,252.931h-6.318V303.2h-25.76a7.087,7.087,0,0,0-4.486,1.557l-2.267,1.854-1.686,1.379-1.69-1.38-2.265-1.85a7.1,7.1,0,0,0-4.487-1.559h-25.76V252.931h-6.311a1.612,1.612,0,0,0-1.688,1.523V309.3a1.612,1.612,0,0,0,1.688,1.523h81.03a1.612,1.612,0,0,0,1.688-1.523V254.454A1.612,1.612,0,0,0,1550.7,252.931Z" transform="translate(0 -23.912)"/>
    <path id="Path_4" data-name="Path 4" d="M1567.907,278.585v-48.05c0-3.351-3.022-6.094-6.753-6.094H1538.77v51.8h22.384A10.639,10.639,0,0,1,1567.907,278.585Z" transform="translate(-59.412 0)"/>
    <path id="Path_5" data-name="Path 5" d="M1605.559,347.913l-8.664,6.524a1.481,1.481,0,0,1-.876.269,1.579,1.579,0,0,1-.469-.065.966.966,0,0,1-.765-.862V340.741a.966.966,0,0,1,.765-.862,1.554,1.554,0,0,1,1.345.2l8.664,6.524A.772.772,0,0,1,1605.559,347.913Z" transform="translate(-106.427 -96.831)" fill="#fff"/>
    <rect id="Rectangle_16" data-name="Rectangle 16" width="16.433" height="0.964" transform="translate(1518.265 234.777)" fill="#fff"/>
    <rect id="Rectangle_17" data-name="Rectangle 17" width="16.433" height="0.964" transform="translate(1518.265 242.407)" fill="#fff"/>
    <rect id="Rectangle_18" data-name="Rectangle 18" width="16.433" height="0.964" transform="translate(1518.265 250.036)" fill="#fff"/>
    <rect id="Rectangle_19" data-name="Rectangle 19" width="16.433" height="0.964" transform="translate(1518.265 257.666)" fill="#fff"/>
    <rect id="Rectangle_20" data-name="Rectangle 20" width="16.433" height="0.964" transform="translate(1518.265 265.295)" fill="#fff"/>
  </g>
</svg>
