<svg class="umw-global-logo-img" role="img" aria-label="University of Mary Washington"
     version="1.1" xmlns="http://www.w3.org/2000/svg" x="0" y="0" viewBox="0 0 481 39.8"
     xml:space="preserve"><title>University of Mary Washington</title><style>.st0{fill:#fff}</style>
    <path class="st0"
          d="M0 1.7h11.6v1.2c-3 .1-3.7.4-3.8 3.3v13c0 1.6 0 3.1.5 4.3 1 2.7 3.9 4.2 7.2 4.2 2.6 0 4.9-.9 6.3-2.3 1.8-1.9 1.8-4.2 1.8-7.1V7.2c-.1-3.4-.5-4-3.7-4.2V1.7H29v1.2c-2.9.4-3.7 1.2-3.8 4.5v11c-.1 4-.2 7.2-4.1 9.5-2.1 1.1-4.1 1.4-6.3 1.4-3.2 0-6.5-.7-8.7-2.9-2.1-2.1-2.2-4-2.2-6.1V6.5c0-1.5 0-2.1-.5-2.7C2.6 3 1.7 3 0 2.9V1.7zM27.5 12.9c2.8-.4 3.4-.6 5.4-1.5.4 1.1.4 1.4.6 2.5 1.5-1.2 3.4-2.6 6.4-2.6 1.1 0 2.5.2 3.6 1.3 1.3 1.2 1.4 2.7 1.4 3.9v9.4c0 1.2.5 1.6 2.7 1.6v1.1h-8.7v-1.1c2-.2 2.7-.3 2.7-1.6v-8.6c0-.9-.1-1.9-.6-2.6-.4-.6-1.3-1.3-2.9-1.3-2.2 0-3.6 1.3-4.4 2v10.4c0 1.5.7 1.6 2.8 1.8v1.1h-8.8v-1.1c2.4 0 2.7-.6 2.7-1.8V15.7c0-1.6-1-1.6-2.9-1.6v-1.2zM48.6 13c3.1-.3 3.7-.5 6.2-1.5v14.1c0 1.6.5 1.8 2.7 2v1.2h-8.7v-1.2c2.2-.1 2.6-.4 2.7-1.6v-9.8c0-1.8-.9-2-2.9-2V13zM51 6.5c0-1.2.9-2.1 2-2.1 1.2 0 2.1.9 2.1 2.1 0 1.1-.9 2-2.1 2-1.1 0-2-.9-2-2M56.6 11.9h7.6V13c-.8 0-1.6.1-1.6.9 0 .3.1.6.3.9l4.2 9.6 4.3-9.6c.2-.4.3-.6.3-.8 0-.7-.8-.8-1.8-.9V12h5.9v1c-1.9.2-2.1.5-2.6 1.6l-6.4 14.1h-1.1l-6.5-14c-.7-1.3-1.1-1.6-2.5-1.7v-1.1zM86.1 18.2c0-1.4-.1-2.7-.6-3.6-.6-1.2-1.8-1.8-3.1-1.8-3.5 0-3.9 3.5-4.2 5.3h7.9zm3.5 6.9c-1.1 1.7-2.7 4.1-6.8 4.1-1.2 0-3.6-.1-5.8-2.2s-2.4-4.6-2.4-6.5c0-5.7 3.6-9.2 8.1-9.2 1.9 0 3.7.7 5 2 2 2 2.1 4.4 2.2 6.2H78.2c0 1.7 0 3.6.7 5.1.8 1.8 2.4 2.8 4.5 2.8 2.7 0 4-1.6 5.2-3.1l1 .8zM90.8 13c2.8-.4 3.4-.6 5.5-1.5.4 1.2.5 1.6.7 3.1 1.1-1.3 2.6-2.9 4.8-2.9 2 0 2.4 1.6 2.4 2.1 0 .8-.5 1.6-1.5 1.6-.3 0-.6-.1-.8-.3-.2-.2-.3-.4-.5-.7-.2-.3-.6-.7-1.3-.7-1.4 0-2.3 1.2-3 2v9.9c0 1.5.5 1.6 3.2 1.8v1.1H91v-1.1c2.1-.1 2.6-.4 2.7-1.5V16c0-2-.7-2-2.9-2v-1zM106.5 22.8c.2 1 .6 2.7 2.1 3.8.7.6 1.8 1 2.8 1 1.8 0 2.9-1.2 2.9-2.5 0-1.2-.8-1.9-1.1-2.1-.4-.3-.7-.5-3.2-1.8s-4.3-2.5-4.3-5.2c0-2.8 1.9-4.6 4.6-4.6 2.1 0 3.1 1 4 1.9.3-.5.5-.7.8-1.5h.9l.1 5.5h-.9c-.3-1.2-.6-2.2-1.6-3.3-.8-.8-1.8-1.3-2.8-1.3-1.4 0-2.4.9-2.4 2.3 0 1.3.9 2.1 2.7 2.9l1.8.9c1.9.9 4.1 2.1 4.1 5.3 0 2.9-1.9 5-4.9 5-2.2 0-3.7-1.1-4.7-1.8-.4.7-.5.9-.7 1.4h-1v-5.9h.8zM118.7 13c3.1-.3 3.7-.5 6.2-1.5v14.1c0 1.6.5 1.8 2.7 2v1.2h-8.7v-1.2c2.2-.1 2.6-.4 2.7-1.6v-9.8c0-1.8-.9-2-2.9-2V13zM121.1 6.5c0-1.2.9-2.1 2-2.1s2.1.9 2.1 2.1c0 1.1-.9 2-2.1 2-1.1 0-2-.9-2-2M128.2 12.2c1-.3 2.6-.8 3.5-3.4.3-1 .4-2 .5-3h1.3v6h4.5V13h-4.5v10.7c0 .5 0 1 .1 1.4.3 1.1 1 1.6 1.9 1.6 1.3 0 2.2-1.1 2.8-1.8l.8.7c-1 1.3-2.3 3.1-5 3.1-1 0-2-.3-2.7-1-1.2-1.1-1.3-2.8-1.3-4.1l.1-10.7h-2.1l.1-.7z"/>
    <path class="st0"
          d="M137.8 11.9h7.8v1.2c-.8 0-2 .2-1.7 1 .1.3.3.8.3.8l4.2 9.3 4.3-9.5s.2-.5.2-.6c.3-.7-1.2-.9-1.9-.9V12h5.9v1.2c-2 .2-2.3.5-3 2.1l-6.8 15.1c-.3.6-.6 1.2-.8 1.8-2.5 5.4-3.6 7.7-6 7.7-1.1 0-2-.6-2-1.5 0-.3.1-.7.3-.9h.5c1.9 0 3.3-1.5 4.4-3 1-1.5 2.1-4 3.1-6.2l-6.4-13.6c-.7-1.4-1.4-1.4-2.5-1.4v-1.4zM169.9 15.1c-1.3 2.5-2.6 7.4-2.6 9.7 0 .8.1 1.8.6 2.3.1.1.5.6 1.2.6 1 0 1.8-.8 2.4-1.6 1.8-2.5 3.6-8.9 3.6-11.3 0-.4 0-.9-.2-1.4-.3-.8-1-1.2-1.6-1.2-1 0-2.3.8-3.4 2.9m-.5-3c1.4-1 2.9-1.3 3.7-1.3 2.9 0 4.7 2.5 4.7 6.1 0 3.5-1.5 7.1-3.1 9-1.4 1.8-3.4 3.2-5.6 3.2-2.1 0-4.5-1.8-4.5-6.4-.1-3.4 1.5-8.2 4.8-10.6"/>
    <path class="st0"
          d="M187 11.6h3.9l-.4 1.3h-3.8l-4.3 15.7c-1.1 3.7-2.1 6.9-3.7 8.9-1.8 2.1-3.6 2.2-4.3 2.2-2.2 0-3.1-1.7-3.1-2.8 0-1 .6-2 1.8-2 .6 0 1.4.3 1.4 1.2 0 .3-.1.6-.2.8-.1.3-.3.5-.3.8 0 .1 0 .6.6.6 2 0 3.1-4 3.6-6.2l5.2-19.2H179l.5-1.4h4.1c1-3.5 1.7-5.8 3.1-7.8 2.3-3.4 5.2-3.9 6.4-3.9 2.1 0 3.9 1.1 3.9 2.6 0 .9-.7 1.6-1.5 1.6-1.3 0-1.7-1.3-1.8-1.7-.2-.6-.3-1.1-1.2-1.1s-1.6.5-2.2 1.1c-1 1-1.4 2.3-2 4.3l-1.3 5zM229.1 1.7h8V3c-1.8.1-2.2.1-2.8.4-1.2.6-1.2 2-1.1 3l.1 17.2c0 1.1 0 2.1.3 2.7.5 1 1.2 1 3.6 1.2v1.2h-12v-1.3c1.9-.1 2.4-.1 2.9-.4 1-.6 1.1-1.8 1.1-3V10.4c0-2.4 0-3.2.2-5.8-.4 1.1-.6 1.8-1.2 3.3l-8.6 20.8h-1.3l-8.4-20.1c-.6-1.6-.7-1.8-1.3-3.6-.1 3.7-.1 7.5-.1 11.2 0 3.4 0 5.2.1 7.4.1 2.3.4 3.6 4 3.9v1.3H203v-1.3c3.2-.5 3.7-1.2 3.9-3.9l.2-16.8c0-3.4-.6-3.8-3.9-3.9V1.7h8.1l6.5 15.4c1.1 2.8 1.4 3.5 2.3 6.2l9-21.6zM248.8 19.2c-.8.3-1.6.6-2.4.8-.9.3-1.8.5-2.5 1-1.5.9-1.6 2.2-1.6 2.8 0 2 1.4 2.8 2.8 2.8 1.6 0 2.8-.9 3.7-1.6v-5.8zm0-3.1c0-.5 0-1-.1-1.5-.5-1.8-2.3-1.9-3-1.9-.4 0-2.2 0-2.6 1.8-.1.5-.1.9-.3 1.3-.4.8-1.3.9-1.6.9-.3 0-1.8 0-1.8-1.5 0-.9 1.4-3.8 6.5-3.8 4.2 0 6.3 2 6.3 4.3v9.7c0 .6.1 1.6 1.1 1.6 1.2 0 1.6-1.3 1.8-2.1h1.2c-.3 1.3-1 3.9-4 3.9-1.2 0-1.9-.4-2.2-.7-.8-.7-.9-1.5-1-2.2-.9.8-2.9 2.9-5.6 2.9-2.4 0-4.3-1.3-4.3-4.3 0-3.3 2-4.5 5-5.2 1-.3 2-.4 3.1-.7l1.8-.6-.3-1.9zM256.4 13c2.8-.4 3.4-.6 5.5-1.5.4 1.2.5 1.6.6 3.1 1.1-1.3 2.6-2.9 4.9-2.9 2 0 2.4 1.6 2.4 2.1 0 .8-.5 1.6-1.5 1.6-.3 0-.6-.1-.8-.3-.2-.2-.3-.4-.5-.7-.2-.3-.6-.7-1.3-.7-1.4 0-2.3 1.2-3 2v9.9c0 1.5.5 1.6 3.2 1.8v1.1h-9.2v-1.1c2.1-.1 2.6-.4 2.7-1.5V16c0-2-.7-2-2.9-2l-.1-1zM270.6 11.9h7.8V13c-.8 0-1.8.1-1.8.9 0 .2.1.4.3.9l4.2 9.3 4.3-9.5c.2-.6.3-.7.3-.8 0-.8-1.2-.8-1.9-.8v-1.1h5.9V13c-2 .2-2.1.6-3 2.2l-6.8 15.1c-.3.6-.6 1.2-.8 1.8-2.5 5.4-3.5 7.7-6 7.7-1.1 0-2-.6-2-1.5 0-.3.1-.7.3-.9h.5c1.9 0 3.3-1.5 4.4-3 1-1.5 2.1-4 3.1-6.2L273 14.5c-.7-1.4-1.5-1.5-2.4-1.5v-1.1zM295.5 1.7h10.8V3c-.4 0-1.5.1-1.8.1-.3.1-1.2.3-1.2 1.3 0 .3.1.6.3 1.4l3.2 11.2c.8 2.7.9 3.3 1.5 6.1l6.5-21.3h1.2l5.4 15.6c.8 2.4 1 3.1 1.7 5.6.3-1.4.4-1.8.8-3.3L328 6.3c.1-.6.3-1.2.3-1.6 0-1.6-1.5-1.6-3.5-1.7V1.7h9.3V3c-2.8.2-3.5.5-4.3 3.1L323 29.2h-1.5l-7.1-20.5-6.4 20.5h-1.6l-7-23c-.7-2.1-1.1-2.9-3.9-3.2V1.7zM339.5 19.2c-.8.3-1.6.6-2.4.8-.9.3-1.8.5-2.5 1-1.5.9-1.6 2.2-1.6 2.8 0 2 1.4 2.8 2.8 2.8 1.6 0 2.8-.9 3.7-1.6v-5.8zm0-3.1c0-.5 0-1-.1-1.5-.5-1.8-2.3-1.9-3-1.9-.4 0-2.2 0-2.6 1.8-.1.5-.1.9-.3 1.3-.4.8-1.3.9-1.6.9-.3 0-1.8 0-1.8-1.5 0-.9 1.4-3.8 6.5-3.8 4.2 0 6.3 2 6.3 4.3v9.7c0 .6.1 1.6 1.1 1.6 1.2 0 1.6-1.3 1.8-2.1h1.2c-.3 1.3-1 3.9-4 3.9-1.2 0-1.9-.4-2.2-.7-.8-.7-.9-1.5-1-2.2-.9.8-2.9 2.9-5.6 2.9-2.4 0-4.3-1.3-4.3-4.3 0-3.3 2-4.5 5-5.2 1-.3 2-.4 3.1-.7l1.8-.6-.3-1.9zM348.9 22.8c.2 1 .6 2.7 2.1 3.8.7.6 1.8 1 2.8 1 1.8 0 2.9-1.2 2.9-2.5 0-1.2-.8-1.9-1.1-2.1-.4-.3-.7-.5-3.2-1.8s-4.3-2.5-4.3-5.2c0-2.8 2-4.6 4.6-4.6 2.1 0 3.1 1 4 1.9.3-.5.5-.7.8-1.5h.9l.1 5.5h-.9c-.3-1.2-.6-2.2-1.6-3.3-.8-.8-1.8-1.3-2.8-1.3-1.4 0-2.4.9-2.4 2.3 0 1.3 1 2.1 2.7 2.9l1.8.9c1.9.9 4.1 2.1 4.1 5.3 0 2.9-1.9 5-4.9 5-2.2 0-3.7-1.1-4.7-1.8-.4.7-.5.9-.7 1.4h-1v-5.9h.8zM360 1.9c3-.2 3.7-.3 6.3-1.3v13.1c1.4-1 3.2-2.3 5.9-2.3 2.3 0 3.9 1.1 4.5 2.1.7 1.1.7 2.5.7 4V26c0 1.5.8 1.5 2.7 1.6v1.1h-8.7v-1.1c.9-.1 1.5-.2 1.6-.2 1-.3 1-.9 1.1-1.4v-8c0-1.4 0-2.3-.3-2.9-.4-.8-1.3-1.7-3.1-1.7-.7 0-1.5.2-2.3.5-1.1.5-1.6 1-2.1 1.4v10.5c.1 1.6.6 1.6 2.6 1.8v1.1h-8.8v-1.1c2-.2 2.6-.2 2.7-2V4.8C362.9 3 362 3 360 3V1.9zM381.3 13c3.1-.3 3.7-.5 6.2-1.5v14.1c0 1.6.5 1.8 2.7 2v1.2h-8.7v-1.2c2.2-.1 2.6-.4 2.7-1.6v-9.8c0-1.8-.9-2-2.9-2V13zM383.7 6.5c0-1.2.9-2.1 2-2.1s2.1.9 2.1 2.1c0 1.1-.9 2-2.1 2-1.1.1-2-.8-2-2M391.3 13c2.8-.4 3.4-.6 5.4-1.5.4 1.1.4 1.4.6 2.5 1.5-1.2 3.4-2.6 6.4-2.6 1.1 0 2.5.2 3.6 1.3 1.3 1.2 1.4 2.7 1.4 3.9V26c0 1.2.5 1.6 2.7 1.6v1.1h-8.7v-1.1c2-.2 2.7-.3 2.7-1.6v-8.6c0-.9-.1-1.9-.6-2.6-.4-.6-1.3-1.3-2.9-1.3-2.2 0-3.5 1.3-4.4 2v10.4c0 1.5.7 1.6 2.8 1.8v1.1h-8.8v-1.1c2.4 0 2.7-.6 2.7-1.8V15.7c0-1.6-1-1.6-2.9-1.6V13zM416.5 17.8c0 1.1 0 4.7 3.2 4.7 3.3 0 3.3-4.4 3.3-5.3 0-.9 0-4.7-3.2-4.7-2.2.1-3.3 1.8-3.3 5.3m12.1-6.3c1.5 0 1.9.9 1.9 1.6 0 .5-.2 1.4-1.5 1.4-.5 0-.8-.2-1.1-.5-.4-.5-.5-.7-1.1-.7-.6 0-1.1.3-1.6.7.4.8.9 1.8.9 3.5 0 3.2-2.1 5-4.5 5.5-1.3.3-2.6.3-3.8.5-2.5.4-2.8 1.2-2.8 1.5 0 .7.6.7 2.9.8 6.1.2 8.3.3 9.8 2.2.8 1.1 1 2.3 1 3.2 0 4.2-3.2 7.8-8.9 7.8-4.4 0-8.4-2.1-8.4-5.7 0-1.9 1.2-2.9 2.4-3.4 1.1-.5 3.1-.7 3.1-.6 0 0-.1.1-.3.2-.3.2-2.3 1.2-2.3 3.6 0 2.8 2.5 4.3 5.7 4.3 3 0 6.1-1.4 6.1-4.3 0-3-2.8-3.2-4.8-3.4-3.5-.3-4.3-.4-5.4-.7-1.6-.5-2.8-1.5-2.8-3.2 0-2.1 2.1-2.6 3.4-3-1.3-.7-3.4-1.6-3.4-5.2 0-3.9 2.8-6.2 6.5-6.2 2.9 0 4.4 1.3 5.1 2 1.2-.8 2.5-1.9 3.9-1.9M431.1 12.2c1-.3 2.6-.8 3.5-3.4.3-1 .4-2 .5-3h1.3v6h4.5V13h-4.5v10.7c0 .5 0 1 .1 1.4.3 1.1 1 1.6 1.9 1.6 1.3 0 2.2-1.1 2.8-1.8l.8.7c-1 1.3-2.3 3.1-5 3.1-1 0-2-.3-2.7-1-1.2-1.1-1.3-2.8-1.3-4.1l.1-10.7H431l.1-.7zM446.3 20.5c0 1.3 0 7.5 5.1 7.5 4.2 0 5.1-4.2 5.1-7.6 0-4.7-1.2-6.3-2.8-7.2-.6-.3-1.4-.5-2.2-.5-4.4 0-5.2 4.2-5.2 7.8m13.8-.3c0 1-.1 4.1-2.5 6.6-1.9 2-4.2 2.4-6.3 2.4-5.9 0-8.7-3.9-8.7-8.8 0-4.2 2.1-6.8 4.4-8 1.4-.7 3.2-1 4.4-1 4.3 0 8.7 2.4 8.7 8.8M461 13c2.8-.4 3.4-.6 5.4-1.5.4 1.1.4 1.4.6 2.5 1.5-1.2 3.4-2.6 6.4-2.6 1.1 0 2.5.2 3.6 1.3 1.3 1.2 1.4 2.7 1.4 3.9V26c0 1.2.5 1.6 2.7 1.6v1.1h-8.7v-1.1c2-.2 2.7-.3 2.7-1.6v-8.6c0-.9-.1-1.9-.6-2.6-.4-.6-1.3-1.3-2.9-1.3-2.2 0-3.5 1.3-4.4 2v10.4c0 1.5.7 1.6 2.8 1.8v1.1h-8.8v-1.1c2.4 0 2.7-.6 2.7-1.8V15.7c0-1.6-1-1.6-2.9-1.6V13z"/></svg>